<svg xmlns="http://www.w3.org/2000/svg" xmlns:xlink="http://www.w3.org/1999/xlink" viewBox="0 0 500 500"><defs><clipPath id="freepik--clip-path--inject-42"><path d="M379.37,294.12c0-5.06-3.34-10.13-10-14-13.38-7.72-35.07-7.72-48.45,0-6.69,3.86-10,8.93-10,14h0V309.3h0c0,5.06,3.34,10.13,10,14,13.38,7.72,35.07,7.72,48.45,0,6.69-3.86,10-8.93,10-14h0V294.12Z" style="fill:none"></path></clipPath></defs><g id="freepik--Clouds--inject-42"><g id="freepik--clouds--inject-42"><path d="M349,83.75l6.55,3.78a8.46,8.46,0,0,1-.05-.87V84.77c0-3.38,2.37-4.75,5.3-3.06a10.28,10.28,0,0,1,3.15,3c.48-4.24,3.81-5.83,7.86-3.49A17.51,17.51,0,0,1,379.76,95v2.84a7.46,7.46,0,0,1-.67,3.29l5.45,3.14a6.47,6.47,0,0,1,2.93,5.09c0,1.87-1.31,2.63-2.93,1.69L349,90.53a6.48,6.48,0,0,1-2.94-5.08C346.09,83.57,347.41,82.81,349,83.75Z" style="fill:#ebebeb"></path><path d="M392.34,66.35,396,67.74v-8c0-6.31,5-7.82,10.5-4.67h0c5.46,3.16,9.89,10.84,9.89,17.15V73.4a5.34,5.34,0,0,1,4.6.71h0a15.76,15.76,0,0,1,7.12,12.34V87l5,2.91A10.37,10.37,0,0,1,437.8,98c0,3-2.1,4.2-4.69,2.7L392.34,77.18a10.39,10.39,0,0,1-4.69-8.13C387.65,66.06,389.75,64.85,392.34,66.35Z" style="fill:#ebebeb"></path></g></g><g id="freepik--Blister--inject-42"><path d="M439.22,354V204.85a15.34,15.34,0,0,0-6.93-12L361.62,152c-3.83-2.21-6.94-.42-6.94,4V305.23a15.33,15.33,0,0,0,6.94,12L432.29,358C436.12,360.25,439.22,358.46,439.22,354Z" style="fill:#e0e0e0"></path><path d="M436,355.92V206.73a15.3,15.3,0,0,0-6.93-12l-70.67-40.81c-3.83-2.21-6.94-.42-6.94,4V307.11a15.33,15.33,0,0,0,6.94,12L429,359.92C432.87,362.13,436,360.34,436,355.92Z" style="fill:#f5f5f5"></path><path d="M429,194.73l-63.73-36.8h0c18.93,12.23,57,34.25,61.76,38s7.22,6.2,7.22,18.3S436,347.7,436,347.7v-141A15.3,15.3,0,0,0,429,194.73Z" style="fill:#fafafa"></path><path d="M391.26,180.06a1.91,1.91,0,0,1,.84,1.52V330.29c0,.57-.37.81-.84.55a1.93,1.93,0,0,1-.83-1.52V180.61C390.43,180,390.8,179.8,391.26,180.06Z" style="fill:#e0e0e0"></path><path d="M384,304.14h0a8.21,8.21,0,0,0-.12-1.41c0-.11-.07-.46-.09-.53a15.3,15.3,0,0,0-6.73-9.57l-12.14-7-.11-.05a8.66,8.66,0,0,0-13.33,7.3,8.22,8.22,0,0,0,.13,1.41,5.24,5.24,0,0,0,.1.53,15.29,15.29,0,0,0,6.7,9.57l12.15,7,.1.05a8.66,8.66,0,0,0,13.34-7.3Z" style="fill:#fafafa;opacity:0.7000000000000001;mix-blend-mode:hard-light"></path><path d="M357.93,289.12c0,4.15,3.11,9.3,6.94,11.51l12.14,7c3.83,2.21,6.94.64,6.94-3.51s-3.11-9.3-6.94-11.51l-12.14-7C361,283.41,357.93,285,357.93,289.12Z" style="fill:#e0e0e0"></path><path d="M359.74,284.22a8.66,8.66,0,0,0-8.31,8.65,8.22,8.22,0,0,0,.13,1.41,5.24,5.24,0,0,0,.1.53,15.67,15.67,0,0,0,5.34,8.63c-3.35-4.64-5.24-7.6-4.43-12.2A8.78,8.78,0,0,1,359.74,284.22Z" style="fill:#fff"></path><path d="M365.51,305.85a3.59,3.59,0,0,1-1.48-3.29,11.2,11.2,0,0,1,5.07-8.78,3.57,3.57,0,0,1,3.59-.36l6.52,3.78A7.18,7.18,0,1,1,372,309.64Z" style="fill:#f5f5f5"></path><path d="M356.52,300.65a7.19,7.19,0,0,1,7.19-12.45l9,5.22a3.57,3.57,0,0,0-3.59.36,11.2,11.2,0,0,0-5.07,8.78,3.59,3.59,0,0,0,1.48,3.29Z" style="fill:#407BFF"></path><path d="M358.14,290.11a2.75,2.75,0,0,0,1,3.75l10.86,6.3a10.35,10.35,0,0,0,1.49-5c0-.18,0-.34,0-.5l-9.58-5.56A2.74,2.74,0,0,0,358.14,290.11Z" style="fill:#fff;opacity:0.4"></path><path d="M365.51,305.85a3.59,3.59,0,0,1-1.48-3.29,11.2,11.2,0,0,1,5.07-8.78,3.57,3.57,0,0,1,3.59-.36l6.52,3.78A7.18,7.18,0,1,1,372,309.64Z" style="fill:#f5f5f5"></path><path d="M369.1,293.78a11.2,11.2,0,0,0-5.07,8.78,3.59,3.59,0,0,0,1.48,3.29l-.51-.3-.39-.22a3.57,3.57,0,0,1-1.48-3.29,11.2,11.2,0,0,1,5.07-8.78,3.57,3.57,0,0,1,3.59-.36l.9.52A3.57,3.57,0,0,0,369.1,293.78Z" style="opacity:0.1"></path><path d="M382.75,302.66h0a7.17,7.17,0,0,1-10.73,7l-6.51-3.79a3.59,3.59,0,0,1-1.48-3.29,8.45,8.45,0,0,1,.31-2.19l10.89,6.3C378.81,308.73,382.71,305,382.75,302.66Z" style="fill:#e0e0e0"></path><path d="M380.27,302.93a2.74,2.74,0,0,1-3.75,1l-11-6.37a10.42,10.42,0,0,1,3.59-3.79,4.64,4.64,0,0,1,.44-.23l9.73,5.63A2.75,2.75,0,0,1,380.27,302.93Z" style="fill:#fff"></path><path d="M354.4,290.08c.08-.11.17-.21.26-.32l.19-.22c.07-.08.15-.15.23-.23l.24-.24.14-.11a6.86,6.86,0,0,1,1.23-.84l0,0,.49-.24h0c-2,1.22-3.29,6.45.29,8.52,1.22.71,3.05,1.8,6.84,4a8.45,8.45,0,0,0-.31,2.19,3.59,3.59,0,0,0,1.48,3.29l-9-5.2a7.2,7.2,0,0,1-2.63-9.82c.12-.19.24-.38.37-.56Z" style="opacity:0.1"></path><path d="M429.46,330.18h0a9.36,9.36,0,0,0-.11-1.41c0-.11-.08-.46-.1-.53a15.28,15.28,0,0,0-6.72-9.57l-12.15-7-.11-.05a8.66,8.66,0,0,0-13.33,7.3,8.22,8.22,0,0,0,.13,1.41c0,.1.07.37.1.53a15.27,15.27,0,0,0,6.7,9.57l12.15,7,.1,0a8.66,8.66,0,0,0,13.34-7.3Z" style="fill:#fafafa;opacity:0.7000000000000001;mix-blend-mode:hard-light"></path><path d="M403.45,315.16c0,4.15,3.1,9.31,6.93,11.52l12.15,7c3.82,2.21,6.93.64,6.93-3.51s-3.11-9.3-6.93-11.51l-12.15-7C406.55,309.45,403.45,311,403.45,315.16Z" style="fill:#e0e0e0"></path><path d="M405.25,310.26a8.67,8.67,0,0,0-8.31,8.65,8.22,8.22,0,0,0,.13,1.41c0,.1.07.37.1.53a15.67,15.67,0,0,0,5.34,8.63c-3.34-4.64-5.24-7.6-4.43-12.19A8.8,8.8,0,0,1,405.25,310.26Z" style="fill:#fff"></path><path d="M411,331.89a3.58,3.58,0,0,1-1.48-3.28,11.22,11.22,0,0,1,5.07-8.79,3.57,3.57,0,0,1,3.59-.36l6.52,3.78a7.18,7.18,0,1,1-7.19,12.44Z" style="fill:#f5f5f5"></path><path d="M402,326.69a7.18,7.18,0,0,1,7.19-12.44l9,5.21a3.57,3.57,0,0,0-3.59.36,11.22,11.22,0,0,0-5.07,8.79,3.58,3.58,0,0,0,1.48,3.28Z" style="fill:#407BFF"></path><path d="M403.65,316.15a2.74,2.74,0,0,0,1,3.75l10.86,6.31a10.42,10.42,0,0,0,1.49-5c0-.17,0-.34,0-.5l-9.58-5.56A2.74,2.74,0,0,0,403.65,316.15Z" style="fill:#fff;opacity:0.4"></path><path d="M411,331.89a3.58,3.58,0,0,1-1.48-3.28,11.22,11.22,0,0,1,5.07-8.79,3.57,3.57,0,0,1,3.59-.36l6.52,3.78a7.18,7.18,0,1,1-7.19,12.44Z" style="fill:#f5f5f5"></path><path d="M414.61,319.82a11.22,11.22,0,0,0-5.07,8.79,3.58,3.58,0,0,0,1.48,3.28l-.51-.29-.39-.23a3.56,3.56,0,0,1-1.48-3.28,11.22,11.22,0,0,1,5.07-8.79,3.57,3.57,0,0,1,3.59-.36l.9.52A3.57,3.57,0,0,0,414.61,319.82Z" style="opacity:0.1"></path><path d="M428.26,328.7h0a7.17,7.17,0,0,1-10.73,7L411,331.89a3.58,3.58,0,0,1-1.48-3.28,8.52,8.52,0,0,1,.31-2.2c3.81,2.19,8.46,4.89,10.89,6.3C424.32,334.78,428.22,331.05,428.26,328.7Z" style="fill:#e0e0e0"></path><path d="M425.78,329a2.74,2.74,0,0,1-3.75,1l-11-6.37a10.42,10.42,0,0,1,3.59-3.79c.15-.09.3-.16.44-.23l9.73,5.63A2.76,2.76,0,0,1,425.78,329Z" style="fill:#fff"></path><path d="M399.91,316.13a4,4,0,0,1,.26-.32,2,2,0,0,1,.19-.22l.23-.24a2.73,2.73,0,0,1,.25-.23A.69.69,0,0,1,401,315a6.91,6.91,0,0,1,1.23-.85l0,0c.15-.08.31-.16.48-.23h0c-2,1.21-3.29,6.45.29,8.51,1.22.71,3.06,1.8,6.84,4a8.52,8.52,0,0,0-.31,2.2,3.58,3.58,0,0,0,1.48,3.28l-9-5.2a7.19,7.19,0,0,1-2.62-9.82,6.65,6.65,0,0,1,.36-.56Z" style="opacity:0.1"></path><path d="M384,266.6h0a8.33,8.33,0,0,0-.12-1.42c0-.1-.07-.46-.09-.52a15.29,15.29,0,0,0-6.73-9.58l-12.14-7-.11,0a8.66,8.66,0,0,0-13.33,7.3,8.22,8.22,0,0,0,.13,1.41,4.38,4.38,0,0,0,.1.53,15.31,15.31,0,0,0,6.7,9.58l12.15,7,.1,0A8.66,8.66,0,0,0,384,266.6Z" style="fill:#fafafa;opacity:0.7000000000000001;mix-blend-mode:hard-light"></path><path d="M357.93,251.58c0,4.14,3.11,9.3,6.94,11.51l12.14,7c3.83,2.21,6.94.64,6.94-3.5s-3.11-9.3-6.94-11.52l-12.14-7C361,245.86,357.93,247.43,357.93,251.58Z" style="fill:#e0e0e0"></path><path d="M359.74,246.67a8.67,8.67,0,0,0-8.31,8.65,8.22,8.22,0,0,0,.13,1.41,4.38,4.38,0,0,0,.1.53,15.67,15.67,0,0,0,5.34,8.63c-3.35-4.64-5.24-7.6-4.43-12.19A8.8,8.8,0,0,1,359.74,246.67Z" style="fill:#fff"></path><path d="M365.51,268.3A3.57,3.57,0,0,1,364,265a11.22,11.22,0,0,1,5.07-8.79,3.56,3.56,0,0,1,3.59-.35l6.52,3.77A7.19,7.19,0,1,1,372,272.1Z" style="fill:#f5f5f5"></path><path d="M356.52,263.1a7.18,7.18,0,1,1,7.19-12.44l9,5.22a3.56,3.56,0,0,0-3.59.35A11.22,11.22,0,0,0,364,265a3.57,3.57,0,0,0,1.48,3.28Z" style="fill:#407BFF"></path><path d="M358.14,252.56a2.76,2.76,0,0,0,1,3.76l10.86,6.3a10.38,10.38,0,0,0,1.49-5c0-.17,0-.33,0-.49l-9.58-5.56A2.74,2.74,0,0,0,358.14,252.56Z" style="fill:#fff;opacity:0.4"></path><path d="M365.51,268.3A3.57,3.57,0,0,1,364,265a11.22,11.22,0,0,1,5.07-8.79,3.56,3.56,0,0,1,3.59-.35l6.52,3.77A7.19,7.19,0,1,1,372,272.1Z" style="fill:#f5f5f5"></path><path d="M369.1,256.23A11.22,11.22,0,0,0,364,265a3.57,3.57,0,0,0,1.48,3.28L365,268l-.39-.23a3.55,3.55,0,0,1-1.48-3.28,11.22,11.22,0,0,1,5.07-8.79,3.56,3.56,0,0,1,3.59-.35l.9.52A3.56,3.56,0,0,0,369.1,256.23Z" style="opacity:0.1"></path><path d="M382.75,265.11h0a7.17,7.17,0,0,1-10.73,7l-6.51-3.8A3.57,3.57,0,0,1,364,265a8.58,8.58,0,0,1,.31-2.2l10.89,6.3C378.81,271.19,382.71,267.47,382.75,265.11Z" style="fill:#e0e0e0"></path><path d="M380.27,265.39a2.75,2.75,0,0,1-3.75,1l-11-6.37a10.37,10.37,0,0,1,3.59-3.8l.44-.23,9.73,5.63A2.76,2.76,0,0,1,380.27,265.39Z" style="fill:#fff"></path><path d="M354.4,252.54a4,4,0,0,1,.26-.32,2,2,0,0,1,.19-.22,2.5,2.5,0,0,1,.23-.23l.24-.24.14-.11a6.91,6.91,0,0,1,1.23-.85l0,0,.49-.23h0c-2,1.21-3.29,6.45.29,8.52,1.22.7,3.05,1.79,6.84,4A8.58,8.58,0,0,0,364,265a3.57,3.57,0,0,0,1.48,3.28l-9-5.2a7.19,7.19,0,0,1-2.63-9.81c.12-.2.24-.38.37-.56A1.33,1.33,0,0,1,354.4,252.54Z" style="opacity:0.1"></path><path d="M429.46,292.64h0a9.49,9.49,0,0,0-.11-1.42c0-.1-.08-.45-.1-.52a15.26,15.26,0,0,0-6.72-9.57l-12.15-7-.11-.05a8.67,8.67,0,0,0-13.33,7.31,8.1,8.1,0,0,0,.13,1.4c0,.11.07.38.1.53a15.29,15.29,0,0,0,6.7,9.58l12.15,7,.1.05a8.66,8.66,0,0,0,13.34-7.3Z" style="fill:#fafafa;opacity:0.7000000000000001;mix-blend-mode:hard-light"></path><path d="M403.45,277.62c0,4.15,3.1,9.3,6.93,11.51l12.15,7c3.82,2.21,6.93.64,6.93-3.5s-3.11-9.3-6.93-11.51l-12.15-7C406.55,271.9,403.45,273.47,403.45,277.62Z" style="fill:#e0e0e0"></path><path d="M405.25,272.72a8.66,8.66,0,0,0-8.31,8.65,8.1,8.1,0,0,0,.13,1.4c0,.11.07.38.1.53a15.63,15.63,0,0,0,5.34,8.63c-3.34-4.64-5.24-7.59-4.43-12.19A8.78,8.78,0,0,1,405.25,272.72Z" style="fill:#fff"></path><path d="M411,294.35a3.59,3.59,0,0,1-1.48-3.29,11.23,11.23,0,0,1,5.07-8.79,3.56,3.56,0,0,1,3.59-.35l6.52,3.77a7.19,7.19,0,1,1-7.19,12.45Z" style="fill:#f5f5f5"></path><path d="M402,289.14a7.18,7.18,0,0,1,7.19-12.44l9,5.22a3.56,3.56,0,0,0-3.59.35,11.23,11.23,0,0,0-5.07,8.79,3.59,3.59,0,0,0,1.48,3.29Z" style="fill:#407BFF"></path><path d="M403.65,278.6a2.76,2.76,0,0,0,1,3.76l10.86,6.3a10.38,10.38,0,0,0,1.49-5c0-.17,0-.33,0-.49l-9.58-5.56A2.75,2.75,0,0,0,403.65,278.6Z" style="fill:#fff;opacity:0.4"></path><path d="M411,294.35a3.59,3.59,0,0,1-1.48-3.29,11.23,11.23,0,0,1,5.07-8.79,3.56,3.56,0,0,1,3.59-.35l6.52,3.77a7.19,7.19,0,1,1-7.19,12.45Z" style="fill:#f5f5f5"></path><path d="M414.61,282.27a11.23,11.23,0,0,0-5.07,8.79,3.59,3.59,0,0,0,1.48,3.29l-.51-.3-.39-.23a3.54,3.54,0,0,1-1.48-3.28,11.23,11.23,0,0,1,5.07-8.79,3.56,3.56,0,0,1,3.59-.35l.9.52A3.56,3.56,0,0,0,414.61,282.27Z" style="opacity:0.1"></path><path d="M428.26,291.16h0a7.12,7.12,0,0,1-.91,4.35,7.19,7.19,0,0,1-9.82,2.63L411,294.35a3.59,3.59,0,0,1-1.48-3.29,8.58,8.58,0,0,1,.31-2.2l10.89,6.3C424.32,297.23,428.22,293.51,428.26,291.16Z" style="fill:#e0e0e0"></path><path d="M425.78,291.43a2.74,2.74,0,0,1-3.75,1l-11-6.37a10.45,10.45,0,0,1,3.59-3.8l.44-.22,9.73,5.63A2.74,2.74,0,0,1,425.78,291.43Z" style="fill:#fff"></path><path d="M399.91,278.58a4,4,0,0,1,.26-.32c.06-.07.12-.15.19-.22l.23-.23.25-.24.13-.11a6.86,6.86,0,0,1,1.23-.84l0,0a3.58,3.58,0,0,1,.48-.24h0c-2,1.21-3.29,6.45.29,8.52,1.22.71,3.06,1.8,6.84,4a8.58,8.58,0,0,0-.31,2.2,3.59,3.59,0,0,0,1.48,3.29l-9-5.21a7.17,7.17,0,0,1-2.62-9.81,6.65,6.65,0,0,1,.36-.56Z" style="opacity:0.1"></path><path d="M384,229.05h0a8.21,8.21,0,0,0-.12-1.41c0-.11-.07-.46-.09-.53a15.3,15.3,0,0,0-6.73-9.57l-12.14-7-.11-.05a8.66,8.66,0,0,0-13.33,7.3,8.22,8.22,0,0,0,.13,1.41,5.24,5.24,0,0,0,.1.53,15.29,15.29,0,0,0,6.7,9.57l12.15,7,.1,0a8.66,8.66,0,0,0,13.34-7.3Z" style="fill:#fafafa;opacity:0.7000000000000001;mix-blend-mode:hard-light"></path><path d="M357.93,214c0,4.15,3.11,9.3,6.94,11.51l12.14,7c3.83,2.21,6.94.64,6.94-3.51s-3.11-9.3-6.94-11.51l-12.14-7C361,208.32,357.93,209.89,357.93,214Z" style="fill:#e0e0e0"></path><path d="M359.74,209.13a8.66,8.66,0,0,0-8.31,8.65,8.22,8.22,0,0,0,.13,1.41,5.24,5.24,0,0,0,.1.53,15.67,15.67,0,0,0,5.34,8.63c-3.35-4.64-5.24-7.6-4.43-12.2A8.78,8.78,0,0,1,359.74,209.13Z" style="fill:#fff"></path><path d="M365.51,230.76a3.59,3.59,0,0,1-1.48-3.29,11.2,11.2,0,0,1,5.07-8.78,3.57,3.57,0,0,1,3.59-.36l6.52,3.78A7.18,7.18,0,1,1,372,234.55Z" style="fill:#f5f5f5"></path><path d="M356.52,225.56a7.19,7.19,0,0,1,7.19-12.45l9,5.22a3.57,3.57,0,0,0-3.59.36,11.2,11.2,0,0,0-5.07,8.78,3.59,3.59,0,0,0,1.48,3.29Z" style="fill:#407BFF"></path><path d="M358.14,215a2.75,2.75,0,0,0,1,3.75l10.86,6.3a10.35,10.35,0,0,0,1.49-5c0-.18,0-.34,0-.5L361.89,214A2.74,2.74,0,0,0,358.14,215Z" style="fill:#fff;opacity:0.4"></path><path d="M365.51,230.76a3.59,3.59,0,0,1-1.48-3.29,11.2,11.2,0,0,1,5.07-8.78,3.57,3.57,0,0,1,3.59-.36l6.52,3.78A7.18,7.18,0,1,1,372,234.55Z" style="fill:#f5f5f5"></path><path d="M369.1,218.69a11.2,11.2,0,0,0-5.07,8.78,3.59,3.59,0,0,0,1.48,3.29l-.51-.3-.39-.22a3.57,3.57,0,0,1-1.48-3.29,11.2,11.2,0,0,1,5.07-8.78,3.57,3.57,0,0,1,3.59-.36l.9.52A3.57,3.57,0,0,0,369.1,218.69Z" style="opacity:0.1"></path><path d="M382.75,227.57h0a7.17,7.17,0,0,1-10.73,7l-6.51-3.79a3.59,3.59,0,0,1-1.48-3.29,8.45,8.45,0,0,1,.31-2.19l10.89,6.3C378.81,233.64,382.71,229.92,382.75,227.57Z" style="fill:#e0e0e0"></path><path d="M380.27,227.84a2.74,2.74,0,0,1-3.75,1l-11-6.37a10.42,10.42,0,0,1,3.59-3.79,4.64,4.64,0,0,1,.44-.23l9.73,5.63A2.75,2.75,0,0,1,380.27,227.84Z" style="fill:#fff"></path><path d="M354.4,215l.26-.32.19-.22.23-.23.24-.24.14-.11a7.42,7.42,0,0,1,1.23-.84l0,0,.49-.24h0c-2,1.22-3.29,6.45.29,8.52,1.22.71,3.05,1.8,6.84,4a8.45,8.45,0,0,0-.31,2.19,3.59,3.59,0,0,0,1.48,3.29l-9-5.2a7.2,7.2,0,0,1-2.63-9.82c.12-.19.24-.38.37-.56Z" style="opacity:0.1"></path><path d="M429.46,255.09h0a9.36,9.36,0,0,0-.11-1.41c0-.11-.08-.46-.1-.53a15.28,15.28,0,0,0-6.72-9.57l-12.15-7-.11,0a8.66,8.66,0,0,0-13.33,7.3,8.22,8.22,0,0,0,.13,1.41c0,.1.07.37.1.53a15.27,15.27,0,0,0,6.7,9.57l12.15,7,.1,0a8.66,8.66,0,0,0,13.34-7.3Z" style="fill:#fafafa;opacity:0.7000000000000001;mix-blend-mode:hard-light"></path><path d="M403.45,240.08c0,4.14,3.1,9.3,6.93,11.51l12.15,7c3.82,2.21,6.93.64,6.93-3.51s-3.11-9.3-6.93-11.51l-12.15-7C406.55,234.36,403.45,235.93,403.45,240.08Z" style="fill:#e0e0e0"></path><path d="M405.25,235.17a8.67,8.67,0,0,0-8.31,8.65,8.22,8.22,0,0,0,.13,1.41c0,.1.07.37.1.53a15.67,15.67,0,0,0,5.34,8.63c-3.34-4.64-5.24-7.6-4.43-12.19A8.8,8.8,0,0,1,405.25,235.17Z" style="fill:#fff"></path><path d="M411,256.8a3.58,3.58,0,0,1-1.48-3.28,11.22,11.22,0,0,1,5.07-8.79,3.57,3.57,0,0,1,3.59-.36l6.52,3.78a7.18,7.18,0,1,1-7.19,12.44Z" style="fill:#f5f5f5"></path><path d="M402,251.6a7.18,7.18,0,0,1,7.19-12.44l9,5.21a3.57,3.57,0,0,0-3.59.36,11.22,11.22,0,0,0-5.07,8.79A3.58,3.58,0,0,0,411,256.8Z" style="fill:#407BFF"></path><path d="M403.65,241.06a2.76,2.76,0,0,0,1,3.76l10.86,6.3a10.42,10.42,0,0,0,1.49-5c0-.17,0-.34,0-.5l-9.58-5.56A2.74,2.74,0,0,0,403.65,241.06Z" style="fill:#fff;opacity:0.4"></path><path d="M411,256.8a3.58,3.58,0,0,1-1.48-3.28,11.22,11.22,0,0,1,5.07-8.79,3.57,3.57,0,0,1,3.59-.36l6.52,3.78a7.18,7.18,0,1,1-7.19,12.44Z" style="fill:#f5f5f5"></path><path d="M414.61,244.73a11.22,11.22,0,0,0-5.07,8.79A3.58,3.58,0,0,0,411,256.8l-.51-.29-.39-.23a3.56,3.56,0,0,1-1.48-3.28,11.22,11.22,0,0,1,5.07-8.79,3.57,3.57,0,0,1,3.59-.36l.9.52A3.57,3.57,0,0,0,414.61,244.73Z" style="opacity:0.1"></path><path d="M428.26,253.61h0a7.17,7.17,0,0,1-10.73,7L411,256.8a3.58,3.58,0,0,1-1.48-3.28,8.52,8.52,0,0,1,.31-2.2c3.81,2.19,8.46,4.9,10.89,6.3C424.32,259.69,428.22,256,428.26,253.61Z" style="fill:#e0e0e0"></path><path d="M425.78,253.89a2.74,2.74,0,0,1-3.75,1l-11-6.37a10.42,10.42,0,0,1,3.59-3.79c.15-.09.3-.16.44-.23l9.73,5.63A2.76,2.76,0,0,1,425.78,253.89Z" style="fill:#fff"></path><path d="M399.91,241a4,4,0,0,1,.26-.32,2,2,0,0,1,.19-.22l.23-.24a2.73,2.73,0,0,1,.25-.23.69.69,0,0,1,.13-.11,6.91,6.91,0,0,1,1.23-.85l0,0c.15-.08.31-.16.48-.23h0c-2,1.21-3.29,6.45.29,8.51,1.22.71,3.06,1.8,6.84,4a8.52,8.52,0,0,0-.31,2.2A3.58,3.58,0,0,0,411,256.8l-9-5.2a7.18,7.18,0,0,1-2.62-9.81,5.5,5.5,0,0,1,.36-.57Z" style="opacity:0.1"></path><path d="M384,191.51h0a8.33,8.33,0,0,0-.12-1.42c0-.1-.07-.46-.09-.52A15.29,15.29,0,0,0,377,180l-12.14-7-.11,0a8.67,8.67,0,0,0-13.33,7.3,8.22,8.22,0,0,0,.13,1.41,4.38,4.38,0,0,0,.1.53,15.31,15.31,0,0,0,6.7,9.58l12.15,7,.1.05a8.66,8.66,0,0,0,13.34-7.3Z" style="fill:#fafafa;opacity:0.7000000000000001;mix-blend-mode:hard-light"></path><path d="M357.93,176.49c0,4.15,3.11,9.3,6.94,11.51L377,195c3.83,2.21,6.94.64,6.94-3.5s-3.11-9.3-6.94-11.51l-12.14-7C361,170.77,357.93,172.34,357.93,176.49Z" style="fill:#e0e0e0"></path><path d="M359.74,171.58a8.67,8.67,0,0,0-8.31,8.65,8.22,8.22,0,0,0,.13,1.41,4.38,4.38,0,0,0,.1.53A15.63,15.63,0,0,0,357,190.8c-3.35-4.64-5.24-7.6-4.43-12.19A8.8,8.8,0,0,1,359.74,171.58Z" style="fill:#fff"></path><path d="M365.51,193.21a3.57,3.57,0,0,1-1.48-3.28,11.22,11.22,0,0,1,5.07-8.79,3.56,3.56,0,0,1,3.59-.35l6.52,3.77A7.19,7.19,0,1,1,372,197Z" style="fill:#f5f5f5"></path><path d="M356.52,188a7.18,7.18,0,1,1,7.19-12.44l9,5.22a3.56,3.56,0,0,0-3.59.35,11.22,11.22,0,0,0-5.07,8.79,3.57,3.57,0,0,0,1.48,3.28Z" style="fill:#407BFF"></path><path d="M358.14,177.47a2.76,2.76,0,0,0,1,3.76l10.86,6.3a10.38,10.38,0,0,0,1.49-5c0-.17,0-.33,0-.49l-9.58-5.56A2.74,2.74,0,0,0,358.14,177.47Z" style="fill:#fff;opacity:0.4"></path><path d="M365.51,193.21a3.57,3.57,0,0,1-1.48-3.28,11.22,11.22,0,0,1,5.07-8.79,3.56,3.56,0,0,1,3.59-.35l6.52,3.77A7.19,7.19,0,1,1,372,197Z" style="fill:#f5f5f5"></path><path d="M369.1,181.14a11.22,11.22,0,0,0-5.07,8.79,3.57,3.57,0,0,0,1.48,3.28l-.51-.29-.39-.23a3.55,3.55,0,0,1-1.48-3.28,11.22,11.22,0,0,1,5.07-8.79,3.56,3.56,0,0,1,3.59-.35l.9.52A3.56,3.56,0,0,0,369.1,181.14Z" style="opacity:0.1"></path><path d="M382.75,190h0a7.12,7.12,0,0,1-.91,4.35A7.2,7.2,0,0,1,372,197l-6.51-3.8a3.57,3.57,0,0,1-1.48-3.28,8.58,8.58,0,0,1,.31-2.2l10.89,6.3C378.81,196.1,382.71,192.38,382.75,190Z" style="fill:#e0e0e0"></path><path d="M380.27,190.3a2.75,2.75,0,0,1-3.75,1l-11-6.37a10.37,10.37,0,0,1,3.59-3.8l.44-.23,9.73,5.63A2.76,2.76,0,0,1,380.27,190.3Z" style="fill:#fff"></path><path d="M354.4,177.45a4,4,0,0,1,.26-.32,2,2,0,0,1,.19-.22l.23-.23.24-.24.14-.11a6.91,6.91,0,0,1,1.23-.85h0a4.44,4.44,0,0,1,.49-.24h0c-2,1.21-3.29,6.45.29,8.52,1.22.7,3.05,1.8,6.84,4a8.58,8.58,0,0,0-.31,2.2,3.57,3.57,0,0,0,1.48,3.28l-9-5.2a7.19,7.19,0,0,1-2.63-9.81c.12-.2.24-.38.37-.56A1.33,1.33,0,0,1,354.4,177.45Z" style="opacity:0.1"></path><path d="M429.46,217.55h0a9.49,9.49,0,0,0-.11-1.42c0-.1-.08-.45-.1-.52a15.26,15.26,0,0,0-6.72-9.57l-12.15-7-.11-.05a8.67,8.67,0,0,0-13.33,7.31,8.1,8.1,0,0,0,.13,1.4c0,.11.07.38.1.53a15.29,15.29,0,0,0,6.7,9.58l12.15,7,.1,0a8.66,8.66,0,0,0,13.34-7.3Z" style="fill:#fafafa;opacity:0.7000000000000001;mix-blend-mode:hard-light"></path><path d="M403.45,202.53c0,4.15,3.1,9.3,6.93,11.51l12.15,7c3.82,2.21,6.93.64,6.93-3.51s-3.11-9.3-6.93-11.51l-12.15-7C406.55,196.81,403.45,198.38,403.45,202.53Z" style="fill:#e0e0e0"></path><path d="M405.25,197.63a8.66,8.66,0,0,0-8.31,8.65,8.1,8.1,0,0,0,.13,1.4c0,.11.07.38.1.53a15.63,15.63,0,0,0,5.34,8.63c-3.34-4.64-5.24-7.59-4.43-12.19A8.78,8.78,0,0,1,405.25,197.63Z" style="fill:#fff"></path><path d="M411,219.26a3.59,3.59,0,0,1-1.48-3.29,11.23,11.23,0,0,1,5.07-8.79,3.59,3.59,0,0,1,3.59-.35l6.52,3.78a7.18,7.18,0,1,1-7.19,12.44Z" style="fill:#f5f5f5"></path><path d="M402,214.05a7.18,7.18,0,0,1,7.19-12.44l9,5.22a3.59,3.59,0,0,0-3.59.35,11.23,11.23,0,0,0-5.07,8.79,3.59,3.59,0,0,0,1.48,3.29Z" style="fill:#407BFF"></path><path d="M403.65,203.51a2.76,2.76,0,0,0,1,3.76l10.86,6.3a10.38,10.38,0,0,0,1.49-5c0-.17,0-.33,0-.49l-9.58-5.56A2.75,2.75,0,0,0,403.65,203.51Z" style="fill:#fff;opacity:0.4"></path><path d="M411,219.26a3.59,3.59,0,0,1-1.48-3.29,11.23,11.23,0,0,1,5.07-8.79,3.59,3.59,0,0,1,3.59-.35l6.52,3.78a7.18,7.18,0,1,1-7.19,12.44Z" style="fill:#f5f5f5"></path><path d="M414.61,207.18a11.23,11.23,0,0,0-5.07,8.79,3.59,3.59,0,0,0,1.48,3.29l-.51-.3-.39-.22a3.57,3.57,0,0,1-1.48-3.29,11.23,11.23,0,0,1,5.07-8.79,3.56,3.56,0,0,1,3.59-.35l.9.52A3.59,3.59,0,0,0,414.61,207.18Z" style="opacity:0.1"></path><path d="M428.26,216.07h0a7.12,7.12,0,0,1-.91,4.35,7.19,7.19,0,0,1-9.82,2.63L411,219.26a3.59,3.59,0,0,1-1.48-3.29,8.58,8.58,0,0,1,.31-2.2l10.89,6.3C424.32,222.14,428.22,218.42,428.26,216.07Z" style="fill:#e0e0e0"></path><path d="M425.78,216.34a2.74,2.74,0,0,1-3.75,1L411,211a10.45,10.45,0,0,1,3.59-3.8l.44-.22,9.73,5.63A2.75,2.75,0,0,1,425.78,216.34Z" style="fill:#fff"></path><path d="M399.91,203.49a4,4,0,0,1,.26-.32c.06-.07.12-.15.19-.22l.23-.23.25-.24.13-.11a6.86,6.86,0,0,1,1.23-.84l0,0a3.58,3.58,0,0,1,.48-.24h0c-2,1.22-3.29,6.45.29,8.52,1.22.71,3.06,1.8,6.84,4a8.58,8.58,0,0,0-.31,2.2,3.59,3.59,0,0,0,1.48,3.29l-9-5.21a7.17,7.17,0,0,1-2.62-9.81,6.65,6.65,0,0,1,.36-.56Z" style="opacity:0.1"></path></g><g id="freepik--pillls-bottle-1--inject-42"><g id="freepik--medicine-bottle--inject-42"><path d="M321.05,161.3a69.23,69.23,0,0,0-9-4.33,15.33,15.33,0,0,1-9.81-14.16V125.53H245.82v17.28A15.31,15.31,0,0,1,236,157a69.23,69.23,0,0,0-9,4.33c-13,7.5-19.47,17.33-19.47,27.15v130.3c0,9.82,6.49,19.65,19.47,27.15,26,15,68.07,15,94,0,13-7.5,19.48-17.32,19.48-27.15V188.45C340.53,178.62,334,168.8,321.05,161.3Z" style="fill:#407BFF"></path><path d="M321.05,161.3a69.23,69.23,0,0,0-9-4.33,15.33,15.33,0,0,1-9.81-14.16V125.53H245.82v17.28A15.31,15.31,0,0,1,236,157a69.23,69.23,0,0,0-9,4.33c-13,7.5-19.47,17.33-19.47,27.15v130.3c0,9.82,6.49,19.65,19.47,27.15,26,15,68.07,15,94,0,13-7.5,19.48-17.32,19.48-27.15V188.45C340.53,178.62,334,168.8,321.05,161.3Z" style="fill:#fff;opacity:0.7000000000000001"></path><ellipse cx="274.07" cy="319.16" rx="66.45" ry="37.99" style="fill:#407BFF"></ellipse><ellipse cx="274.07" cy="319.16" rx="66.45" ry="37.99" style="fill:#fff;opacity:0.5"></ellipse><path d="M307.63,143.7c-12.23-7.06-29.51-9.46-45.19-7.17v-11H245.82V142.8A15.3,15.3,0,0,1,236,157a72.41,72.41,0,0,0-9,4.33c-.11,0-.2.13-.32.18-12.78,7.48-19.15,17.22-19.15,27V318.74c0,9.84,6.49,19.65,19.47,27.15,18.68,10.79,45.7,13.77,69.06,9.05C242,358.65,229,335.73,229,319.15V192.46c0-5.85.88-10.68,5-14.75a35.63,35.63,0,0,0,6.57,4.76c18.55,10.7,48.6,10.7,67.13,0S326.18,154.42,307.63,143.7Z" style="fill:#fff;opacity:0.4"></path><path d="M321.05,161.3a69.23,69.23,0,0,0-9-4.33,15.33,15.33,0,0,1-9.81-14.16V125.53h-6.16v23.13c0,5.33,4.59,10.4,9.9,13.3s22.19,10.23,26.28,18.25c3.9,7.63,2.63,22.8,2.63,40.8v92c0,11.68-4.87,28.58-26.56,38.74a75.92,75.92,0,0,0,12.73-5.7c13-7.5,19.47-16.93,19.47-27.27V188.45C340.53,178.62,334,168.8,321.05,161.3Z" style="fill:#fff;opacity:0.4"></path><path d="M321.55,149.78v4.92c0,7-4.61,14.06-13.92,19.45-18.53,10.69-48.57,10.69-67.15,0a32,32,0,0,1-10.41-9.08,17.71,17.71,0,0,1-3.46-10.28v-5.11a12.34,12.34,0,0,1,.37-3.18c1.15-5.94,5.67-11.7,13.5-16.22a5.23,5.23,0,0,1,.7-.37c18.61-10.32,48.15-10.18,66.45.37,7.83,4.52,12.4,10.28,13.55,16.18A13.37,13.37,0,0,1,321.55,149.78Z" style="fill:#f0f0f0"></path><path d="M278,177.06V159.59c0-6.91,1.75,2.44-10.37,2.44-10.51,0-19.86-24.24-26.4-32.12a5.23,5.23,0,0,0-.7.37c-7.83,4.52-12.35,10.28-13.5,16.22a12.34,12.34,0,0,0-.37,3.18v5.11a17.71,17.71,0,0,0,3.46,10.28,32,32,0,0,0,10.41,9.08c18.58,10.69,48.62,10.69,67.15,0C294.54,179.31,278,183.65,278,177.06Z" style="fill:#e0e0e0"></path><ellipse cx="274.07" cy="149.67" rx="47.47" ry="27.41" style="fill:#455a64"></ellipse><path d="M321.55,133.32v9.82a13.42,13.42,0,0,1-.37,3.32c-1.15,5.9-5.72,11.66-13.55,16.17-8.3,4.8-18.89,7.42-29.68,7.89-13.41.64-27.19-2-37.47-7.93a32.55,32.55,0,0,1-10.41-9A18,18,0,0,1,227,146.5a12.64,12.64,0,0,1-.37-3.22V133.23c0-7,4.61-14,13.87-19.4.83-.46,1.66-.92,2.54-1.34,18.66-9.35,46.91-8.89,64.61,1.34C316.94,119.22,321.59,126.27,321.55,133.32Z" style="fill:#f0f0f0"></path><ellipse cx="274.07" cy="132.99" rx="47.47" ry="27.41" style="fill:#fafafa"></ellipse><path d="M230.07,153.56a32.55,32.55,0,0,0,10.41,9c10.28,5.94,24.06,8.57,37.47,7.93h0c.13-3.45,2.06-6.09-10.37-8.49-10.32-2-25.58-6.28-32.7-17.56-6.54-10.37-2.78-24,8.14-32-.88.42-1.71.88-2.54,1.34-9.26,5.35-13.87,12.35-13.87,19.4v10.05a12.64,12.64,0,0,0,.37,3.22A18,18,0,0,0,230.07,153.56Z" style="fill:#e0e0e0"></path><path d="M321.28,235.53c-26.09,14.92-68.39,14.92-94.48,0-13.05-7.45-19.57-17.23-19.57-27v64.52c0,9.77,6.52,19.55,19.57,27,26.09,14.92,68.39,14.92,94.48,0,13.05-7.45,19.57-17.23,19.57-27V208.53C340.85,218.3,334.33,228.08,321.28,235.53Z" style="fill:#407BFF"></path><path d="M321.28,229.35c-26.09,14.91-68.39,14.91-94.48,0-13.05-7.46-19.57-17.23-19.57-27v64.52c0,9.78,6.52,19.55,19.57,27,26.09,14.91,68.39,14.91,94.48,0,13.05-7.46,19.57-17.23,19.57-27V202.34C340.85,212.12,334.33,221.89,321.28,229.35Z" style="fill:#fafafa"></path><g id="freepik--Heart--inject-42"><path id="freepik--heart--inject-42" d="M252.37,267.39a30.3,30.3,0,0,0-2.54-11.72h0l0-.08c-1.85-4.22-4.53-7.76-7.51-9.48-4.35-2.5-8,1.61-9.45,7.36-.14.58-.82.61-.91,0-1.32-7.5-5.12-16.29-9.6-18.85-3-1.71-5.66-1.25-7.5.86l0,0h0c-1.57,1.84-2.53,4.87-2.52,8.82,0,12.24,7.39,23.23,13.57,34.8l6.67,11.17,6.34-3.7C245,282.16,252.39,279.63,252.37,267.39Z" style="fill:#407BFF"></path><path d="M223.23,263.39l2.85-7.47a1.14,1.14,0,0,1,1.1-.82,1.09,1.09,0,0,1,1.06.87l4.41,17.15,3.51-9.6a1.12,1.12,0,0,1,1.08-.73h0a1.11,1.11,0,0,1,1,.81l2.61,9.28,9.07,5.23-.21.32a15.3,15.3,0,0,1-1,1.25l-.19.22-9.21-5.32a1.09,1.09,0,0,1-.51-.66l-1.8-6.39-3.65,10a1.12,1.12,0,0,1-1.12.73,1.11,1.11,0,0,1-1-.87L227,260.89l-2,4.49a1.1,1.1,0,0,1-.65.73,1.13,1.13,0,0,1-1-.06l-7.25-4.19-.05-.1c-.35-.79-.69-1.57-1-2.36l-.38-.94Z" style="fill:#fafafa"></path></g><path d="M274.54,263.27c-2.55,0-5.12-.08-7.73-.24a1,1,0,0,1-.93-1.06,1,1,0,0,1,1.06-.93c17.57,1.07,34-1.57,47.56-7.65a1,1,0,0,1,.82,1.83C303.5,260.53,289.52,263.27,274.54,263.27Z" style="fill:#e0e0e0"></path><path d="M274.54,274.13c-2.55,0-5.12-.08-7.73-.24a1,1,0,0,1-.93-1.06,1,1,0,0,1,1.06-.93c17.57,1.07,34-1.57,47.56-7.65a1,1,0,0,1,.82,1.83C303.5,271.39,289.52,274.13,274.54,274.13Z" style="fill:#e0e0e0"></path><path d="M274.54,285c-2.55,0-5.12-.08-7.73-.24a1,1,0,0,1,.13-2c17.57,1.08,34-1.56,47.56-7.64a1,1,0,0,1,1.32.5,1,1,0,0,1-.5,1.33C303.5,282.24,289.52,285,274.54,285Z" style="fill:#e0e0e0"></path></g></g><g id="freepik--Pills--inject-42"><g id="freepik--Pill--inject-42"><path d="M238.36,422.51a6.91,6.91,0,0,0-.38-.9,6.71,6.71,0,0,0-.42-.72,10.26,10.26,0,0,0-2.68-2.66V421l-2.37-1.38v-2.75c-6.6-3.13-16.36-2.9-22.52.65a9.71,9.71,0,0,0-4.61,5c0,.16-.09.31-.13.47a5.52,5.52,0,0,0-.18,1.39v5.49a6.33,6.33,0,0,0,1.23,3.65,11.52,11.52,0,0,0,3.69,3.21c6.57,3.79,17.21,3.79,23.76,0,3.28-1.9,4.93-4.38,4.93-6.86v-5.49A5.73,5.73,0,0,0,238.36,422.51Z" style="fill:#f0f0f0"></path><path d="M227.14,415.16c-5.83-1.11-12.51-.33-17.15,2.35a9.71,9.71,0,0,0-4.61,5c0,.16-.09.31-.13.47a5.52,5.52,0,0,0-.18,1.39v5.49a6.33,6.33,0,0,0,1.23,3.65,11.52,11.52,0,0,0,3.69,3.21c4.64,2.68,11.32,3.45,17.15,2.34Z" style="fill:#ebebeb"></path><path d="M210,417.51c-6.16,3.56-6.54,9.19-1.13,13l23.64-13.65C225.91,413.74,216.16,414,210,417.51Z" style="fill:#fafafa"></path><path d="M208.86,429.07s-6.53-5,.73-11.31c-5.76,3.56-6,9-.72,12.75l23.64-13.65Z" style="fill:#fff"></path><path d="M234.88,418.23l-23.64,13.65c6.6,3.12,16.36,2.91,22.52-.65S240.29,422,234.88,418.23Z" style="fill:#fafafa"></path><path d="M211.24,431.88c6.6,3.12,16.36,2.91,22.52-.65a13.25,13.25,0,0,0,1.94-1.35c-12.09,6.06-21.81,1.79-21.81,1.79l21-13.44Z" style="fill:#fff"></path><polygon points="232.51 419.61 208.87 433.32 208.87 430.51 232.51 416.86 232.51 419.61" style="fill:#e0e0e0"></polygon><polygon points="211.24 431.88 211.25 434.69 208.87 433.32 211.24 431.88" style="opacity:0.2"></polygon></g><g id="freepik--pill--inject-42"><path d="M245,413.71a6.49,6.49,0,0,0-.38-.91,7.45,7.45,0,0,0-.43-.71,10.21,10.21,0,0,0-2.67-2.66v2.75l-2.38-1.38v-2.75c-6.6-3.12-16.35-2.9-22.51.66a9.62,9.62,0,0,0-4.61,5c-.05.16-.1.31-.14.46a6,6,0,0,0-.17,1.39v5.5a6.33,6.33,0,0,0,1.23,3.65,11.39,11.39,0,0,0,3.69,3.2c6.56,3.79,17.2,3.79,23.76,0,3.28-1.89,4.92-4.37,4.92-6.85v-5.5A5.66,5.66,0,0,0,245,413.71Z" style="fill:#f0f0f0"></path><path d="M233.73,406.35c-5.84-1.11-12.51-.32-17.15,2.36a9.62,9.62,0,0,0-4.61,5c-.05.16-.1.31-.14.46a6,6,0,0,0-.17,1.39v5.5a6.33,6.33,0,0,0,1.23,3.65,11.39,11.39,0,0,0,3.69,3.2c4.64,2.68,11.31,3.46,17.15,2.35Z" style="fill:#ebebeb"></path><path d="M216.58,408.71c-6.16,3.55-6.54,9.18-1.13,13l23.64-13.64C232.49,404.93,222.74,405.15,216.58,408.71Z" style="fill:#fafafa"></path><path d="M215.45,420.27s-6.53-5,.73-11.32c-5.77,3.57-6,9-.73,12.75l23.64-13.64Z" style="fill:#fff"></path><path d="M241.47,409.43l-23.64,13.65c6.6,3.12,16.35,2.9,22.51-.66S246.87,413.24,241.47,409.43Z" style="fill:#fafafa"></path><path d="M217.83,423.08c6.6,3.12,16.35,2.9,22.51-.66a13.46,13.46,0,0,0,1.94-1.34c-12.08,6.05-21.81,1.78-21.81,1.78l21-13.43Z" style="fill:#fff"></path><polygon points="239.09 410.8 215.45 424.52 215.45 421.7 239.09 408.06 239.09 410.8" style="fill:#e0e0e0"></polygon><polygon points="217.83 423.08 217.83 425.89 215.45 424.52 217.83 423.08" style="opacity:0.2"></polygon></g><g id="freepik--Capsule--inject-42"><path d="M286.56,428.38c-1-.58-1.63-1.83-1.63-3.61a12.35,12.35,0,0,1,5.58-9.67,3.92,3.92,0,0,1,3.94-.39l7.18,4.16a7.9,7.9,0,1,1-7.91,13.68Z" style="fill:#f5f5f5"></path><path d="M276.67,422.66A7.91,7.91,0,1,1,284.58,409l9.87,5.74a3.92,3.92,0,0,0-3.94.39,12.35,12.35,0,0,0-5.58,9.67c0,1.78.62,3,1.63,3.61Z" style="fill:#407BFF"></path><path d="M278.45,411.07a3,3,0,0,0,1.1,4.13l11.95,6.93a11.45,11.45,0,0,0,1.64-5.51c0-.19,0-.37,0-.54L282.58,410A3,3,0,0,0,278.45,411.07Z" style="fill:#fff;opacity:0.4"></path><path d="M286.56,428.38c-1-.58-1.63-1.83-1.63-3.61a12.35,12.35,0,0,1,5.58-9.67,3.92,3.92,0,0,1,3.94-.39l7.18,4.16a7.9,7.9,0,1,1-7.91,13.68Z" style="fill:#f5f5f5"></path><path d="M290.51,415.1a12.35,12.35,0,0,0-5.58,9.67c0,1.78.62,3,1.63,3.61l-.56-.32-.43-.25c-1-.58-1.63-1.83-1.63-3.61a12.32,12.32,0,0,1,5.58-9.67,3.92,3.92,0,0,1,3.94-.39l1,.57A3.92,3.92,0,0,0,290.51,415.1Z" style="opacity:0.1"></path><path d="M305.52,424.87h0a7.81,7.81,0,0,1-1,4.79,7.9,7.9,0,0,1-10.8,2.89l-7.16-4.17c-1-.58-1.63-1.83-1.63-3.61a9.41,9.41,0,0,1,.34-2.42l12,6.93C301.19,431.56,305.48,427.46,305.52,424.87Z" style="fill:#ebebeb"></path><path d="M302.8,425.18a3,3,0,0,1-4.13,1.1l-12.11-7a11.31,11.31,0,0,1,3.95-4.18l.48-.25,10.7,6.19A3,3,0,0,1,302.8,425.18Z" style="fill:#fff"></path><path d="M274.34,411c.09-.12.18-.24.28-.35l.21-.24.25-.26a3.45,3.45,0,0,1,.28-.26l.14-.12a8.11,8.11,0,0,1,1.35-.93l0,0,.53-.26h0c-2.21,1.33-3.61,7.09.32,9.37,1.35.78,3.37,2,7.53,4.38a9.41,9.41,0,0,0-.34,2.42c0,1.78.62,3,1.63,3.61l-9.89-5.72a7.91,7.91,0,0,1-2.89-10.8c.12-.21.26-.41.4-.61Z" style="opacity:0.1"></path></g><g id="freepik--capsule--inject-42"><path d="M412.51,401.63a3.94,3.94,0,0,0,1.64-3.62,12.34,12.34,0,0,0-5.58-9.66c-1.54-.89-2.94-1-3.95-.39l-7.17,4.15a7.9,7.9,0,0,0,7.9,13.69Z" style="fill:#f5f5f5"></path><path d="M422.4,395.91a7.9,7.9,0,0,0-7.9-13.69L404.62,388c1-.59,2.41-.5,3.95.39a12.34,12.34,0,0,1,5.58,9.66,3.94,3.94,0,0,1-1.64,3.62Z" style="fill:#407BFF"></path><path d="M420.63,384.31a3,3,0,0,1-1.11,4.13l-11.94,6.93a11.42,11.42,0,0,1-1.64-5.51c0-.18,0-.36,0-.54l10.54-6.12A3,3,0,0,1,420.63,384.31Z" style="fill:#fff;opacity:0.4"></path><path d="M412.51,401.63a3.94,3.94,0,0,0,1.64-3.62,12.34,12.34,0,0,0-5.58-9.66c-1.54-.89-2.94-1-3.95-.39l-7.17,4.15a7.9,7.9,0,0,0,7.9,13.69Z" style="fill:#f5f5f5"></path><path d="M408.57,388.35a12.34,12.34,0,0,1,5.58,9.66,3.94,3.94,0,0,1-1.64,3.62l.57-.33.42-.25a3.91,3.91,0,0,0,1.64-3.61,12.33,12.33,0,0,0-5.58-9.66,3.94,3.94,0,0,0-3.95-.4l-1,.58C405.63,387.37,407,387.46,408.57,388.35Z" style="opacity:0.1"></path><path d="M393.55,398.12h0a7.89,7.89,0,0,0,11.8,7.68l7.16-4.17a3.94,3.94,0,0,0,1.64-3.62,9.36,9.36,0,0,0-.35-2.41l-12,6.93C397.88,404.8,393.6,400.71,393.55,398.12Z" style="fill:#ebebeb"></path><path d="M396.28,398.42a3,3,0,0,0,4.13,1.11l12.11-7a11.44,11.44,0,0,0-3.95-4.17,4.55,4.55,0,0,0-.49-.25l-10.7,6.19A3,3,0,0,0,396.28,398.42Z" style="fill:#fff"></path><path d="M424.74,384.29l-.28-.36-.22-.24-.25-.25-.27-.26-.14-.12a7.62,7.62,0,0,0-1.36-.93l0,0-.53-.26h0c2.22,1.34,3.62,7.1-.32,9.37-1.35.78-3.36,2-7.53,4.39a9.36,9.36,0,0,1,.35,2.41,3.94,3.94,0,0,1-1.64,3.62l9.89-5.72a7.9,7.9,0,0,0,2.89-10.8c-.12-.21-.25-.42-.39-.62Z" style="opacity:0.1"></path></g></g><g id="freepik--pillls-bottle-2--inject-42"><g id="freepik--pill-bottle--inject-42"><path d="M377.41,308.87c0-4.77-3.15-9.55-9.46-13.19-12.61-7.28-33.06-7.28-45.67,0-6.31,3.64-9.46,8.42-9.46,13.19h0v82.91h0c0,4.77,3.15,9.54,9.46,13.18,12.61,7.29,33.06,7.29,45.67,0,6.31-3.64,9.46-8.41,9.46-13.18h0Z" style="fill:#407BFF"></path><path d="M365,294.19V406.46A31.36,31.36,0,0,0,368,405a24,24,0,0,0,5.13-3.89V299.58a24.3,24.3,0,0,0-5.13-3.9C367,295.14,366,294.65,365,294.19Z" style="fill:#fff;opacity:0.4"></path><path d="M356.53,409.21a48,48,0,0,0,4.65-1.27V292.71a45.31,45.31,0,0,0-4.65-1.27Z" style="fill:#fff;opacity:0.4"></path><path d="M376.85,305.43a23.26,23.26,0,0,0-7.51-6.53c-12.45-7.19-32.09-7.68-45.54-1.49v-2.52c-.51.26-1,.51-1.52.79-6.31,3.64-9.46,8.42-9.46,13.19v12.62h0V373.7h0v18.08c0,4.77,3.15,9.54,9.46,13.18,12.61,7.29,33.06,7.29,45.67,0a23.92,23.92,0,0,0,5.76-4.5c-6,5.61-21,8.7-32.07,6.51s-17.84-9.27-17.84-14.31V376.24c6.23,3.37,14.38,5,22.34,5V347.7c-8,0-16.11-1.23-22.34-4.58V328.36c13.45,6.19,33.09,5.7,45.54-1.49a22,22,0,0,0,8.07-7.45V308.87A11.06,11.06,0,0,0,376.85,305.43Z" style="opacity:0.1"></path><path d="M318.27,394.09V298.5c-3.63,3.13-5.45,6.75-5.45,10.37v82.91c0,4.77,3.15,9.54,9.46,13.18a40.51,40.51,0,0,0,12.26,4.42C322.41,406.09,318.27,397.8,318.27,394.09Z" style="opacity:0.1"></path><path d="M379.37,294.12c0-5.06-3.34-10.13-10-14-13.38-7.72-35.07-7.72-48.45,0-6.69,3.86-10,8.93-10,14h0V309.3h0c0,5.06,3.34,10.13,10,14,13.38,7.72,35.07,7.72,48.45,0,6.69-3.86,10-8.93,10-14h0V294.12Z" style="fill:#e0e0e0"></path><g style="clip-path:url(#freepik--clip-path--inject-42)"><g style="opacity:0.2"><rect x="378.55" y="292.71" width="1.64" height="23.62"></rect><rect x="374.77" y="299.09" width="1.64" height="23.75"></rect><rect x="369.05" y="303.48" width="1.64" height="23.87"></rect><rect x="362.53" y="306.21" width="1.64" height="24"></rect><rect x="355.36" y="308.03" width="1.64" height="24.13"></rect><rect x="347.77" y="308.94" width="1.64" height="24.26"></rect><rect x="340.06" y="308.91" width="1.64" height="24.38"></rect><rect x="332.54" y="307.91" width="1.64" height="24.51"></rect><rect x="325.49" y="305.88" width="1.64" height="24.64"></rect><rect x="319.1" y="302.74" width="1.64" height="24.77"></rect><rect x="314.03" y="298.37" width="1.64" height="24.89"></rect><rect x="310.04" y="291.31" width="1.64" height="25.02"></rect></g><path d="M353.31,328.48c-16.95.1-25.9-5.41-28.61-9.9-2.07-3.42-2.42-9.72-2.42-16,0,0-1.91-14.24-1.54-14.28s-4.07-1-7.36-1.66a12.84,12.84,0,0,0-2.52,7.45h0V309.3h0c0,5.06,3.34,10.13,10,14C329.68,328.36,342.06,330.08,353.31,328.48Z" style="opacity:0.1"></path></g><ellipse cx="345.11" cy="294.12" rx="34.26" ry="19.78" style="fill:#ebebeb"></ellipse><path d="M371.18,306.93c11.48-7.77,10.88-19.45-1.84-26.8-6.52-3.76-15-5.68-23.57-5.77a38.08,38.08,0,0,0-12.5,4.26c-11.56,6.61-11.56,19.81,0,26.42C343.59,310.94,359.63,311.56,371.18,306.93Z" style="fill:#f5f5f5"></path><path d="M324.14,403.49c11.58,5.82,30.37,5.82,41.95,0s11.59-15.26,0-21.08-30.37-5.82-41.95,0S312.55,397.67,324.14,403.49Z" style="opacity:0.1"></path><path d="M312.82,330.66c0,4.77,3.15,9.54,9.46,13.18s14.57,5.46,22.83,5.46v32.87c-8.26,0-16.53-1.82-22.83-5.46s-9.46-8.41-9.46-13.18Z" style="fill:#fff"></path><path d="M313.48,301.71s11.14,11.22,32.66,10.63,30.14-12.34,31.27-16a13.44,13.44,0,0,0-2.9-12.4,14.28,14.28,0,0,1,4.86,10.16V309.3c0,1.28.66,5.7-6.29,11.42,0,0,4.08-4.63,4.08-9.08v-10.5s-7.62,12.74-31,12.74S314.66,303.62,313.48,301.71Z" style="fill:#fff"></path></g></g></svg>